<svg width="32" height="32" viewBox="0 0 32 32" fill="none" xmlns="http://www.w3.org/2000/svg">
<path d="M16.0003 2.66669C8.62699 2.66669 2.66699 8.62669 2.66699 16C2.66699 23.3734 8.62699 29.3334 16.0003 29.3334C23.3737 29.3334 29.3337 23.3734 29.3337 16C29.3337 8.62669 23.3737 2.66669 16.0003 2.66669ZM21.7337 21.7334C21.2137 22.2534 20.3737 22.2534 19.8537 21.7334L16.0003 17.88L12.147 21.7334C11.627 22.2534 10.787 22.2534 10.267 21.7334C9.74699 21.2134 9.74699 20.3734 10.267 19.8534L14.1203 16L10.267 12.1467C9.74699 11.6267 9.74699 10.7867 10.267 10.2667C10.787 9.74669 11.627 9.74669 12.147 10.2667L16.0003 14.12L19.8537 10.2667C20.3737 9.74669 21.2137 9.74669 21.7337 10.2667C22.2537 10.7867 22.2537 11.6267 21.7337 12.1467L17.8803 16L21.7337 19.8534C22.2403 20.36 22.2403 21.2134 21.7337 21.7334Z" fill="#8F8F8F"/>
</svg>
